<svg id="data" xmlns="http://www.w3.org/2000/svg" width="207.648" height="207.417" viewBox="0 0 207.648 207.417">
  <path id="Path_5" data-name="Path 5" d="M184.176,417.711H242.2v24.014H184.176Zm0,0" transform="translate(-109.481 -248.303)" fill="#5a5a5a"/>
  <path id="Path_6" data-name="Path 6" d="M196.761,172.771H10.648A10.647,10.647,0,0,1,0,162.124V10.648A10.647,10.647,0,0,1,10.648,0H196.761a10.647,10.647,0,0,1,10.648,10.648V162.124A10.647,10.647,0,0,1,196.761,172.771Zm0,0" transform="translate(0 0)" fill="#ffd86e"/>
  <path id="Path_7" data-name="Path 7" d="M476.744,10.652V162.126A10.647,10.647,0,0,1,466.1,172.774H453.09a10.647,10.647,0,0,0,10.648-10.648V10.652A10.647,10.647,0,0,0,453.09,0H466.1a10.647,10.647,0,0,1,10.648,10.648Zm0,0" transform="translate(-269.333 -0.002)" fill="#ffb509"/>
  <path id="Path_8" data-name="Path 8" d="M207.409,362.754H0v15a10.647,10.647,0,0,0,10.648,10.648H196.761a10.647,10.647,0,0,0,10.648-10.648Zm0,0" transform="translate(0 -215.635)" fill="#838383"/>
  <path id="Path_9" data-name="Path 9" d="M476.744,362.75v15.006A10.647,10.647,0,0,1,466.1,388.4H453.09a10.647,10.647,0,0,0,10.648-10.648V362.75Zm0,0" transform="translate(-269.333 -215.632)" fill="#5a5a5a"/>
  <path id="Path_10" data-name="Path 10" d="M207.985,36.323H.57V10.648A10.647,10.647,0,0,1,11.216,0H197.338a10.647,10.647,0,0,1,10.648,10.648Zm0,0" transform="translate(-0.339)" fill="#acacac"/>
  <path id="Path_11" data-name="Path 11" d="M476.979,10.648V36.327H463.735V10.648A10.647,10.647,0,0,0,453.086,0h13.246A10.647,10.647,0,0,1,476.979,10.648Zm0,0" transform="translate(-269.331 -0.002)" fill="#9c9c9c"/>
  <path id="Path_12" data-name="Path 12" d="M230.381,486.283H134.759a2.087,2.087,0,0,1-2.086-2.086v-6.763a8.3,8.3,0,0,1,8.3-8.3h83.186a8.3,8.3,0,0,1,8.3,8.3V484.2a2.087,2.087,0,0,1-2.086,2.086Zm0,0" transform="translate(-78.865 -278.868)" fill="#838383"/>
  <path id="Path_13" data-name="Path 13" d="M352.713,477.432V484.2a2.087,2.087,0,0,1-2.088,2.086h-7.367v-8.853a8.3,8.3,0,0,0-8.3-8.3h9.455A8.3,8.3,0,0,1,352.713,477.432Zm0,0" transform="translate(-199.111 -278.868)" fill="#5a5a5a"/>
  <g id="Group_2" data-name="Group 2" transform="translate(10.859 49.92)">
    <path id="Path_14" data-name="Path 14" d="M39.632,148.8a3.034,3.034,0,0,1-2.151-.89L27.667,138.1a3.041,3.041,0,0,1,0-4.3l9.814-9.814a3.042,3.042,0,0,1,4.3,4.3l-7.664,7.664,7.664,7.664a3.041,3.041,0,0,1-2.151,5.192Zm0,0" transform="translate(-26.775 -123.09)" fill="#838383"/>
    <path id="Path_15" data-name="Path 15" d="M111.877,148.8a3.041,3.041,0,0,1-2.151-5.192l7.664-7.665-7.664-7.664a3.042,3.042,0,0,1,4.3-4.3l9.814,9.814a3.041,3.041,0,0,1,0,4.3l-9.814,9.816a3.033,3.033,0,0,1-2.151.89Zm0,0" transform="translate(-75.554 -123.09)" fill="#838383"/>
    <path id="Path_16" data-name="Path 16" d="M74.263,148.8a3.045,3.045,0,0,1-2.831-4.155l7.712-19.63a3.042,3.042,0,1,1,5.662,2.226l-7.712,19.629A3.041,3.041,0,0,1,74.263,148.8Zm0,0" transform="translate(-53.195 -123.088)" fill="#838383"/>
    <path id="Path_17" data-name="Path 17" d="M55.275,222.864H34.186a3.042,3.042,0,1,1,0-6.083H55.275a3.042,3.042,0,0,1,0,6.083Zm0,0" transform="translate(-29.373 -178.783)" fill="#838383"/>
    <path id="Path_18" data-name="Path 18" d="M151.613,222.864H114.534a3.042,3.042,0,1,1,0-6.083h37.079a3.042,3.042,0,0,1,0,6.083Zm0,0" transform="translate(-77.134 -178.783)" fill="#838383"/>
    <path id="Path_19" data-name="Path 19" d="M43.17,255.419H34.186a3.042,3.042,0,1,1,0-6.083H43.17a3.042,3.042,0,1,1,0,6.083Zm0,0" transform="translate(-29.373 -198.135)" fill="#838383"/>
    <path id="Path_20" data-name="Path 20" d="M183.189,255.419h-5.472a3.042,3.042,0,1,1,0-6.083h5.472a3.042,3.042,0,0,1,0,6.083Zm0,0" transform="translate(-114.693 -198.135)" fill="#838383"/>
    <path id="Path_21" data-name="Path 21" d="M110.3,255.419H83.425a3.042,3.042,0,1,1,0-6.083H110.3a3.042,3.042,0,1,1,0,6.083Zm0,0" transform="translate(-58.642 -198.135)" fill="#838383"/>
    <path id="Path_22" data-name="Path 22" d="M225.935,255.419H215.686a3.042,3.042,0,1,1,0-6.083h10.248a3.042,3.042,0,1,1,0,6.083Zm0,0" transform="translate(-137.263 -198.135)" fill="#838383"/>
    <path id="Path_23" data-name="Path 23" d="M176.738,151.845H165.928a3.042,3.042,0,0,1,0-6.083h10.809a3.042,3.042,0,1,1,0,6.083Zm0,0" transform="translate(-107.685 -136.566)" fill="#838383"/>
    <path id="Path_24" data-name="Path 24" d="M288.38,151.845H222.429a3.042,3.042,0,1,1,0-6.083H288.38a3.042,3.042,0,0,1,0,6.083Zm0,0" transform="translate(-141.271 -136.566)" fill="#838383"/>
    <path id="Path_25" data-name="Path 25" d="M321.189,185.81H294.475a3.042,3.042,0,1,1,0-6.083h26.713a3.042,3.042,0,1,1,0,6.083Zm0,0" transform="translate(-184.098 -156.756)" fill="#838383"/>
    <path id="Path_26" data-name="Path 26" d="M256.311,185.81h-9.184a3.042,3.042,0,1,1,0-6.083h9.184a3.042,3.042,0,1,1,0,6.083Zm0,0" transform="translate(-155.953 -156.756)" fill="#838383"/>
    <path id="Path_27" data-name="Path 27" d="M188.423,185.81h-22.5a3.042,3.042,0,1,1,0-6.083h22.5a3.042,3.042,0,1,1,0,6.083Zm0,0" transform="translate(-107.682 -156.756)" fill="#838383"/>
    <path id="Path_28" data-name="Path 28" d="M118.869,287.7H97.78a3.042,3.042,0,1,1,0-6.083h21.089a3.042,3.042,0,1,1,0,6.083Zm0,0" transform="translate(-67.175 -217.326)" fill="#838383"/>
    <path id="Path_29" data-name="Path 29" d="M50.39,287.7h-16.2a3.042,3.042,0,1,1,0-6.083h16.2a3.042,3.042,0,1,1,0,6.083Zm0,0" transform="translate(-29.373 -217.326)" fill="#838383"/>
    <path id="Path_30" data-name="Path 30" d="M203.664,287.7H176.116a3.042,3.042,0,1,1,0-6.083h27.548a3.042,3.042,0,1,1,0,6.083Zm0,0" transform="translate(-113.741 -217.326)" fill="#838383"/>
  </g>
  <path id="Path_31" data-name="Path 31" d="M296.664,263.391h67.791v22.957H296.664Zm0,0" transform="translate(-176.348 -156.569)" fill="#64dcfc"/>
  <path id="Path_32" data-name="Path 32" d="M296.664,350.871h67.791V372.16H296.664Zm0,0" transform="translate(-176.348 -208.571)" fill="#64dcfc"/>
  <path id="Path_33" data-name="Path 33" d="M444.051,263.391h8.016v22.957h-8.016Zm0,0" transform="translate(-263.96 -156.569)" fill="#00d1fc"/>
  <path id="Path_34" data-name="Path 34" d="M444.051,350.871h8.016V372.16h-8.016Zm0,0" transform="translate(-263.96 -208.571)" fill="#00d1fc"/>
  <path id="Path_35" data-name="Path 35" d="M357.406,244.517H278.389a3.026,3.026,0,0,1-3.026-3.026V226.276a3.026,3.026,0,0,1,3.026-3.026h79.017a3.026,3.026,0,0,1,3.026,3.026v15.215A3.026,3.026,0,0,1,357.406,244.517Zm0,0" transform="translate(-163.686 -132.708)" fill="#0396fd"/>
  <path id="Path_36" data-name="Path 36" d="M357.406,328.638H278.389a3.026,3.026,0,0,1-3.026-3.026V310.4a3.026,3.026,0,0,1,3.026-3.026h79.017a3.026,3.026,0,0,1,3.026,3.026v15.215A3.026,3.026,0,0,1,357.406,328.638Zm0,0" transform="translate(-163.686 -182.713)" fill="#0396fd"/>
  <path id="Path_37" data-name="Path 37" d="M357.406,412.759H278.389a3.026,3.026,0,0,1-3.026-3.026V394.518a3.026,3.026,0,0,1,3.026-3.026h79.017a3.026,3.026,0,0,1,3.026,3.026v15.215A3.026,3.026,0,0,1,357.406,412.759Zm0,0" transform="translate(-163.686 -232.718)" fill="#0396fd"/>
  <path id="Path_38" data-name="Path 38" d="M470.391,226.276v15.215a3.026,3.026,0,0,1-3.026,3.026h-7.021a3.025,3.025,0,0,0,3.026-3.026V226.276a3.025,3.025,0,0,0-3.026-3.026h7.021A3.026,3.026,0,0,1,470.391,226.276Zm0,0" transform="translate(-273.645 -132.708)" fill="#0077f0"/>
  <path id="Path_39" data-name="Path 39" d="M470.391,310.393v15.215a3.024,3.024,0,0,1-3.026,3.027h-7.021a3.023,3.023,0,0,0,3.026-3.027V310.393a3.025,3.025,0,0,0-3.026-3.026h7.021A3.026,3.026,0,0,1,470.391,310.393Zm0,0" transform="translate(-273.645 -182.71)" fill="#0077f0"/>
  <path id="Path_40" data-name="Path 40" d="M470.391,394.522v15.215a3.026,3.026,0,0,1-3.026,3.026h-7.021a3.025,3.025,0,0,0,3.026-3.026V394.522a3.023,3.023,0,0,0-3.026-3.026h7.021A3.024,3.024,0,0,1,470.391,394.522Zm0,0" transform="translate(-273.645 -232.72)" fill="#0077f0"/>
  <path id="Path_41" data-name="Path 41" d="M313.825,248.052H298.76a3.042,3.042,0,1,1,0-6.083h15.066a3.042,3.042,0,1,1,0,6.083Zm0,0" transform="translate(-175.786 -143.835)" fill="#e7e7e7"/>
  <path id="Path_42" data-name="Path 42" d="M421.631,248.052H400.362a3.042,3.042,0,0,1,0-6.083h21.267a3.042,3.042,0,0,1,0,6.083Zm0,0" transform="translate(-236.182 -143.835)" fill="#e7e7e7"/>
  <path id="Path_43" data-name="Path 43" d="M367,248.052h-4.875a3.042,3.042,0,0,1,0-6.083H367a3.042,3.042,0,0,1,0,6.083Zm0,0" transform="translate(-213.452 -143.835)" fill="#e7e7e7"/>
  <path id="Path_44" data-name="Path 44" d="M313.825,332.173H298.76a3.042,3.042,0,1,1,0-6.083h15.066a3.042,3.042,0,1,1,0,6.083Zm0,0" transform="translate(-175.786 -193.84)" fill="#e7e7e7"/>
  <path id="Path_45" data-name="Path 45" d="M421.631,332.173H400.362a3.042,3.042,0,0,1,0-6.083h21.267a3.042,3.042,0,0,1,0,6.083Zm0,0" transform="translate(-236.182 -193.84)" fill="#e7e7e7"/>
  <path id="Path_46" data-name="Path 46" d="M367,332.173h-4.875a3.042,3.042,0,0,1,0-6.083H367a3.042,3.042,0,0,1,0,6.083Zm0,0" transform="translate(-213.452 -193.84)" fill="#e7e7e7"/>
  <path id="Path_47" data-name="Path 47" d="M313.825,416.294H298.76a3.042,3.042,0,1,1,0-6.083h15.066a3.042,3.042,0,1,1,0,6.083Zm0,0" transform="translate(-175.786 -243.845)" fill="#e7e7e7"/>
  <path id="Path_48" data-name="Path 48" d="M421.631,416.294H400.362a3.042,3.042,0,1,1,0-6.083h21.267a3.042,3.042,0,0,1,0,6.083Zm0,0" transform="translate(-236.182 -243.845)" fill="#e7e7e7"/>
  <path id="Path_49" data-name="Path 49" d="M367,416.294h-4.875a3.042,3.042,0,0,1,0-6.083H367a3.042,3.042,0,1,1,0,6.083Zm0,0" transform="translate(-213.452 -243.845)" fill="#e7e7e7"/>
  <path id="Path_50" data-name="Path 50" d="M46.388,35.685a6.057,6.057,0,1,1-6.057-6.057A6.056,6.056,0,0,1,46.388,35.685Zm0,0" transform="translate(-20.373 -17.613)" fill="#ff5770"/>
  <path id="Path_51" data-name="Path 51" d="M104.062,35.685a6.057,6.057,0,1,1-6.057-6.057A6.055,6.055,0,0,1,104.062,35.685Zm0,0" transform="translate(-54.658 -17.613)" fill="#ffd86e"/>
  <path id="Path_52" data-name="Path 52" d="M161.738,35.685a6.057,6.057,0,1,1-6.057-6.057A6.056,6.056,0,0,1,161.738,35.685Zm0,0" transform="translate(-88.943 -17.613)" fill="#80e0dc"/>
  <path id="Path_53" data-name="Path 53" d="M49.141,35.689A6.052,6.052,0,0,1,38.91,40.068a6.05,6.05,0,0,0,4.037-10.431c.046,0,.1,0,.143,0a6.052,6.052,0,0,1,6.052,6.057Zm0,0" transform="translate(-23.13 -17.615)" fill="#ff435f"/>
  <path id="Path_54" data-name="Path 54" d="M106.813,35.689a6.054,6.054,0,0,1-10.234,4.379,6.051,6.051,0,0,0,4.041-10.431,1.3,1.3,0,0,1,.138,0,6.052,6.052,0,0,1,6.055,6.057Zm0,0" transform="translate(-57.41 -17.615)" fill="#ffb509"/>
  <path id="Path_55" data-name="Path 55" d="M164.489,35.689a6.055,6.055,0,0,1-10.236,4.379,6.05,6.05,0,0,0,4.037-10.431c.046,0,.1,0,.143,0a6.056,6.056,0,0,1,6.057,6.057Zm0,0" transform="translate(-91.694 -17.615)" fill="#00a8b0"/>
</svg>
